<?xml version="1.0" encoding="UTF-8"?>
<svg id="Layer_1" xmlns="http://www.w3.org/2000/svg" version="1.1" viewBox="0 0 369 369">
  <!-- Generator: Adobe Illustrator 29.8.0, SVG Export Plug-In . SVG Version: 2.1.1 Build 160)  -->
  <defs>
    <style>
      .st0 {
        fill: #dc2626;
      }
    </style>
  </defs>
  <path class="st0" d="M82.47,323.77c-.26-.7-.59-51.44-.72-112.77l-.25-111.5-37.25-.26-37.25-.26v-54.98h102.89c92.91,0,102.95.15,103.5,1.58.79,2.07.79,49.77,0,51.84-.54,1.4-4.82,1.58-38,1.58-20.56,0-37.5.11-37.63.25-.13.14-.47,50.87-.75,112.75l-.51,112.5-26.78.27c-20.88.2-26.88-.02-27.25-1ZM156.25,323.88c-1.75-1.79-1.8-50.93-.05-52.68.88-.88,9.89-1.2,34.25-1.21,18.18,0,36.93-.45,41.67-.99,27.79-3.19,53.54-23.27,63.69-49.69,7.97-20.74,8.01-49.37.09-69.6-3.14-8.02-10.64-20.27-16.03-26.17-9.49-10.38-28.24-21.17-39.87-22.95-2.48-.38-5.51-1.35-6.75-2.16-2.23-1.46-2.25-1.69-2.25-25.52,0-14.66.4-24.8,1.04-25.98,3.67-6.86,44.83,6.06,67.39,21.15,21.17,14.16,41.16,39.71,50.4,64.42,2.7,7.22,6.33,23.83,7.33,33.5,1.46,14.19.44,39.06-2.07,50.66-5.39,24.84-15.84,45.93-31.1,62.77-20.32,22.42-43.4,35.3-76.49,42.69-9.22,2.06-13.12,2.26-50,2.64-31.58.31-40.26.13-41.25-.88ZM170.95,234.25c-.39-5.63.11-98.54.53-99.22.81-1.3,4.14.07,11.73,4.84,3.46,2.17,14.61,8.77,24.79,14.67,10.18,5.89,22.32,12.96,27,15.71,4.68,2.74,11.76,6.77,15.75,8.96,3.99,2.18,7.25,4.58,7.25,5.33,0,1.26-6.82,5.68-18,11.66-9.63,5.15-52.31,30.29-59.32,34.94-5.38,3.57-9.61,4.92-9.73,3.11Z"/>
</svg>